<?xml version="1.0" encoding="UTF-8"?><svg id="Calque_1" xmlns="http://www.w3.org/2000/svg" xmlns:xlink="http://www.w3.org/1999/xlink" viewBox="0 0 393.58 74.06"><defs><style>.cls-1{fill:#db0d15;}.cls-1,.cls-2{stroke-width:0px;}.cls-2{fill:url(#Dégradé_sans_nom_14);}</style><linearGradient id="Dégradé_sans_nom_14" x1="366" y1="39.62" x2="399.89" y2="29.37" gradientUnits="userSpaceOnUse"><stop offset=".14" stop-color="#db0d15"/><stop offset=".52" stop-color="#ea825a"/><stop offset=".96" stop-color="#e8608e"/></linearGradient></defs><path class="cls-1" d="m0,.83c4.55,0,6.83,0,11.38-.01,0,20.35-.02,40.7-.03,61.05,7.47-.65,11.21-.96,18.69-1.54,0,3.97,0,5.95,0,9.92C20.01,71.13,10,72.13,0,73.24V.83Z"/><path class="cls-1" d="m46.4,29.46c6.25-.21,9.37-.32,15.61-.5,0,3.82,0,5.73-.01,9.56-6.25.25-9.37.39-15.61.67-.01,7.97-.02,11.96-.03,19.93,7.85-.54,11.78-.79,19.64-1.25,0,3.81,0,5.71-.01,9.52-10.34.69-20.68,1.5-31.01,2.41.02-23,.05-46.01.07-69.01,10.34-.01,20.69-.02,31.03-.03,0,3.81,0,5.71-.01,9.52-7.86.08-11.79.13-19.65.22,0,7.58-.01,11.38-.02,18.96Z"/><path class="cls-1" d="m90.15,29.61c6.37-.15,9.56-.22,15.93-.35-.01,8.17-.02,12.26-.03,20.43-.01,10.31-5.82,16.42-17,17.03-11.18.61-16.96-5.04-16.94-15.64.02-11.48.03-22.96.05-34.44.02-10.6,5.82-16.65,16.99-16.65s16.96,5.89,16.94,16.2v6.26c-4.31.06-6.46.1-10.77.17,0-2.78,0-4.17.01-6.96,0-4.64-2.27-6.38-5.89-6.36-3.62.03-5.9,1.82-5.91,6.51-.02,11.8-.04,23.6-.05,35.39,0,4.68,2.27,6.25,5.89,6.08,3.62-.17,5.9-1.93,5.91-6.57,0-4.79.01-7.18.02-11.96-2.07.06-3.1.09-5.17.16,0-3.72,0-5.59.01-9.31Z"/><path class="cls-1" d="m137.2,64.1c-.62-1.62-1.03-2.6-1.03-7.76,0-3.99,0-5.98,0-9.96,0-5.89-2.27-8.03-7.45-7.94-1.57.03-2.36.04-3.93.07-.01,10.38-.02,15.57-.03,25.94-4.56.15-6.83.23-11.39.4.03-21.37.05-42.75.08-64.12,6.87,0,10.3,0,17.17,0,11.79,0,16.86,4.78,16.85,14.52,0,1.99,0,2.98,0,4.96,0,6.5-2.39,10.75-7.46,12.89,5.69,2.01,7.55,6.78,7.55,13.37,0,3.9,0,5.85,0,9.75,0,3.07.1,5.32,1.24,7.65-4.64.08-6.96.13-11.6.24Zm-12.37-54.27c0,7.83-.01,11.74-.02,19.57,1.78-.03,2.67-.04,4.45-.06,4.24-.06,6.83-1.71,6.84-6.79,0-2.5,0-3.75,0-6.25,0-4.53-1.75-6.52-5.79-6.5-2.19,0-3.29.01-5.48.03Z"/><path class="cls-1" d="m154.11,15.86c0-10.09,6.11-15.86,17.28-15.86s17.28,5.76,17.28,15.83v32.73c.01,10.07-6.1,15.75-17.29,15.79-11.19.04-17.3-5.62-17.29-15.71,0-10.93.01-21.86.02-32.79Zm11.37,33.33c0,4.5,2.28,6.19,5.9,6.18,3.63-.01,5.9-1.71,5.9-6.21,0-11.32,0-22.65,0-33.97,0-4.49-2.28-6.2-5.9-6.2-3.62,0-5.9,1.71-5.9,6.21,0,11.33,0,22.66,0,33.99Z"/><path class="cls-1" d="m211.31,0c11.07,0,16.76,5.83,16.77,16.02,0,.8,0,1.2,0,2-4.3-.04-6.46-.06-10.76-.09,0-1.05,0-1.58,0-2.63,0-4.53-2.08-6.26-5.7-6.27s-5.97,2.01-5.69,6.21c.94,14.03,22.14,17.29,22.28,33.9.09,10.12-5.78,15.81-16.97,15.56-11.19-.24-16.99-6.04-17-16.12,0-1.55,0-2.32,0-3.87,4.31.03,6.46.05,10.77.11,0,1.8,0,2.71,0,4.51,0,4.51,2.28,6.17,5.91,6.23,3.62.07,6.08-1.71,5.9-6.04-.6-14.16-22.58-17.66-22.28-33.7.19-9.88,5.68-15.84,16.75-15.84Z"/><path class="cls-1" d="m258.57,65.7c-.62-1.7-1.04-2.74-1.05-8.03,0-4.08,0-6.12-.01-10.2,0-6.03-2.29-8.32-7.46-8.46-1.57-.04-2.36-.06-3.93-.1.01,10.48.02,15.73.04,26.21-4.55-.2-6.83-.28-11.39-.45-.03-21.31-.05-42.62-.08-63.94,6.87,0,10.3,0,17.17,0,11.79,0,16.87,4.97,16.88,15.07,0,2.06,0,3.09,0,5.15.01,6.74-2.36,11.07-7.43,13.08,5.69,2.29,7.56,7.32,7.57,14.16,0,4.04,0,6.06.02,10.11,0,3.18.11,5.52,1.25,8.02-4.64-.27-6.95-.39-11.59-.63Zm-12.5-55.76c.01,7.91.02,11.86.03,19.77,1.78.03,2.67.05,4.45.09,4.24.09,6.83-1.52,6.82-6.71,0-2.56,0-3.84,0-6.4,0-4.64-1.77-6.69-5.8-6.72-2.19-.02-3.29-.02-5.48-.04Z"/><path class="cls-1" d="m287.69,28.86c6.25.18,9.37.28,15.62.49,0,3.87,0,5.81.01,9.69-6.24-.28-9.37-.41-15.61-.65.01,7.81.02,11.71.03,19.52,7.86.46,11.79.71,19.64,1.26,0,3.89,0,5.84.01,9.73-10.33-.84-20.67-1.58-31.02-2.2-.03-21.98-.07-43.96-.1-65.94,10.34,0,20.69.02,31.03.02,0,3.89,0,5.84.01,9.73-7.86-.1-11.79-.14-19.65-.22.01,7.43.02,11.14.03,18.57Z"/><path class="cls-1" d="m352.29.83c-3.9,11.52-7.86,23.03-11.88,34.51,4.31,12.61,8.55,25.24,12.71,37.89-4.79-.52-7.18-.77-11.97-1.26-3.06-9.59-6.16-19.16-9.31-28.72-3.09,8.99-6.22,17.96-9.38,26.93-4.26-.38-6.38-.57-10.64-.92,4.28-11.54,8.5-23.09,12.67-34.67-3.92-11.29-7.9-22.56-11.93-33.8,4.72,0,7.08,0,11.79.01,3.44,10.26,5.16,15.44,8.6,25.94,3.51-10.25,5.26-15.43,8.77-25.92,4.22,0,6.33,0,10.55.01Z"/><path class="cls-2" d="m379.87,32.54h13.71v7.98h-13.71v14.02h-7.98v-14.02h-13.71v-7.98h13.71v-13.81h7.98v13.81Z"/></svg>